PathFileType	4	(X/Y/Z)	C:/Users/opensim2020/Desktop/walking_exp_matlab/subject01_walking04_straight_03.trc	
DataRate	CameraRate	NumFrames	NumMarkers	Units	OrigDataRate	OrigDataStartFrame	OrigNumFrames	
100.00	100.00	8	43	mm	100.00	2128	211	
Frame#	Time	LFHD			RFHD			LBHD			RBHD			C7			T10			CLAV			STRN			RBAK			LSHO			LUPA			LELB			LFRM			LWRA			LWRB			LFIN			RSHO			RUPA			RELB			RFRM			RWRA			RWRB			RFIN			LASI			RASI			LPSI			RPSI			LTHI			LKNE			LTIB			LANK			LHEE			LTOE			RTHI			RKNE			RTIB			RANK			RHEE			RTOE			*39			*40			*41			*42			
		X1	Y1	Z1	X2	Y2	Z2	X3	Y3	Z3	X4	Y4	Z4	X5	Y5	Z5	X6	Y6	Z6	X7	Y7	Z7	X8	Y8	Z8	X9	Y9	Z9	X10	Y10	Z10	X11	Y11	Z11	X12	Y12	Z12	X13	Y13	Z13	X14	Y14	Z14	X15	Y15	Z15	X16	Y16	Z16	X17	Y17	Z17	X18	Y18	Z18	X19	Y19	Z19	X20	Y20	Z20	X21	Y21	Z21	X22	Y22	Z22	X23	Y23	Z23	X24	Y24	Z24	X25	Y25	Z25	X26	Y26	Z26	X27	Y27	Z27	X28	Y28	Z28	X29	Y29	Z29	X30	Y30	Z30	X31	Y31	Z31	X32	Y32	Z32	X33	Y33	Z33	X34	Y34	Z34	X35	Y35	Z35	X36	Y36	Z36	X37	Y37	Z37	X38	Y38	Z38	X39	Y39	Z39	X40	Y40	Z40	X41	Y41	Z41	X42	Y42	Z42	X43	Y43	Z43	

27	0.260	-1143.74756	-786.47699	1661.15430	-1030.24854	-770.57703	1668.73926	-1131.99585	-900.17981	1607.98352	-1012.05969	-886.35736	1614.19482	-1086.51636	-932.21460	1420.87659	-1059.83521	-967.51129	1129.31799	-1087.95703	-787.35016	1352.45374	-1091.39893	-745.74170	1198.42554	-1000.28900	-982.93109	1228.29773	-1247.09424	-854.44977	1373.45605	-1330.98755	-872.67444	1190.08667	-1342.95483	-864.65619	1037.61401	-1370.71265	-781.97461	955.86475	-1358.82886	-657.89697	894.48840	-1379.40308	-704.38202	862.01715	-1395.43494	-629.83710	827.40839	-933.73108	-845.34924	1384.45984	-828.73810	-920.90698	1195.51477	-823.55981	-937.96454	1073.96533	-785.70099	-939.47833	956.42029	-796.34808	-890.25714	821.89520	-757.98126	-932.76251	836.38977	-757.60480	-917.98853	750.52490	-1171.05054	-804.75989	916.31567	-956.42944	-780.10803	931.23364	-1094.26990	-983.33386	936.36511	-950.20044	-964.80853	942.88202	-1238.12085	-892.35376	597.67249	-1239.49500	-932.65161	468.00607	-1242.27783	-1072.24780	336.59796	-1202.54175	-1195.12292	148.59854	-1138.80286	-1228.82361	143.61095	-1234.75867	-1108.87378	29.63433	-889.82880	-775.49658	602.58557	-921.83899	-734.74823	450.90762	-914.91711	-756.59454	275.23978	-967.64337	-746.32666	70.79723	-1020.56335	-790.47321	30.78795	-967.56110	-604.55774	38.12391	-1052.89502	-785.77850	1701.02881	-3101.84692	1973.12048	1023.32605	-3140.57153	2012.54895	1021.92621			 
28	0.270	-1141.03442	-777.67719	1662.01013	-1027.88062	-761.96045	1669.84534	-1129.39612	-891.47485	1609.28894	-1009.44263	-877.50079	1615.59595	-1083.83264	-923.53540	1421.80078	-1058.03174	-958.75574	1130.36609	-1084.89575	-778.85559	1353.67871	-1088.74158	-736.94324	1199.75684	-997.51514	-974.03467	1229.38257	-1244.42871	-845.80762	1374.87097	-1328.60425	-864.31885	1191.62732	-1339.52136	-858.46478	1038.90771	-1367.16455	-777.33307	955.49414	-1355.08496	-654.35883	891.68988	-1376.04150	-701.43054	860.41937	-1391.37683	-627.26898	824.04645	-931.17468	-836.74878	1385.81921	-826.16803	-911.80493	1196.69226	-821.21490	-928.19684	1074.81396	-783.90027	-928.14862	956.91150	-795.51086	-877.18463	823.14868	-756.86072	-919.43536	836.95056	-756.91522	-903.75293	751.13263	-1168.20520	-795.07526	917.71075	-953.76147	-771.60114	932.36017	-1092.97644	-974.21039	937.47748	-948.89197	-956.26532	944.10138	-1237.52734	-876.20258	597.16437	-1239.53320	-914.13104	467.14645	-1242.75928	-1056.42505	339.41489	-1203.14380	-1184.34717	155.34407	-1139.30652	-1218.16736	152.42426	-1233.39270	-1105.99390	30.84487	-888.15637	-771.17499	602.95709	-920.17047	-731.73120	450.63214	-914.11694	-754.79663	274.84122	-967.58722	-746.15680	70.80196	-1020.49878	-790.38904	30.72531	-967.56732	-604.39246	37.67983	-1050.44275	-776.57910	1702.05347	-3102.00366	1973.01550	1023.82196	-3140.52661	2012.59094	1022.04681			 
29	0.280	-1138.56348	-768.87311	1662.83496	-1025.15979	-752.58905	1670.68066	-1126.81665	-882.78351	1610.47632	-1006.85706	-868.73297	1616.85571	-1081.16431	-915.24347	1422.74023	-1056.12219	-949.97528	1131.26392	-1082.77246	-770.17139	1354.97205	-1086.15759	-728.27002	1200.97241	-994.57666	-965.13049	1230.38000	-1241.69458	-837.24304	1376.10022	-1326.20654	-856.24280	1193.01050	-1336.04736	-852.40741	1039.96472	-1363.82593	-773.00452	955.16327	-1351.38745	-651.02075	888.74927	-1372.95349	-698.63574	858.51855	-1387.32324	-625.08966	820.43170	-928.77148	-828.10938	1386.98450	-823.38965	-902.64697	1197.82544	-818.75867	-918.47345	1075.45422	-781.95093	-916.70050	957.31226	-794.48505	-863.74493	824.35199	-755.39990	-906.36554	837.38721	-756.21271	-888.95520	751.66382	-1165.64319	-785.72931	918.95367	-951.26227	-763.36792	933.30286	-1091.76941	-965.29199	938.39111	-947.68158	-948.02911	945.21826	-1236.92554	-859.76483	596.71649	-1239.41382	-895.36774	466.06042	-1243.17249	-1039.74731	341.60330	-1203.42529	-1172.62805	161.99387	-1139.81506	-1206.98584	160.88387	-1232.52844	-1101.74329	33.62328	-886.88727	-768.06165	602.94501	-918.04431	-728.59894	450.08948	-913.49823	-753.50574	274.47885	-967.50262	-746.05493	70.51431	-1020.42059	-790.41302	30.68609	-967.37317	-604.33057	37.33186	-1047.95068	-767.55231	1703.09583	-3101.86646	1973.09155	1023.28821	-3140.44360	2012.52161	1021.94049			 
30	0.290	-1136.06775	-760.05603	1663.62000	-1022.66595	-743.61877	1671.55505	-1124.23914	-874.12854	1611.55493	-1004.26111	-859.97229	1618.01062	-1078.46350	-906.73682	1423.42493	-1054.07520	-941.34058	1132.03418	-1080.17456	-761.73712	1355.94739	-1083.62683	-719.68787	1202.04736	-991.60126	-956.29431	1231.31897	-1239.15234	-828.77563	1377.23926	-1323.75488	-848.41254	1194.24561	-1332.66907	-846.37451	1040.99231	-1360.52588	-768.66565	954.44342	-1347.84216	-648.03229	885.62244	-1369.55127	-696.15942	856.40216	-1383.46643	-623.33466	816.50696	-926.21301	-819.16144	1388.18665	-820.52960	-893.43451	1198.76526	-816.12115	-908.74872	1075.97961	-779.82141	-905.08185	957.49414	-793.36316	-850.00116	825.55298	-754.01392	-891.89429	837.56818	-755.40802	-873.84430	752.11249	-1163.24060	-776.64465	919.99652	-948.92212	-755.42383	933.94739	-1090.69495	-956.69684	939.09149	-946.52753	-939.97809	946.21881	-1235.94568	-843.58502	595.84302	-1239.07361	-876.54840	464.91998	-1243.57349	-1022.30865	343.05731	-1203.21362	-1160.20166	168.69560	-1139.92480	-1195.71399	169.51668	-1231.59448	-1095.09131	37.62177	-885.48676	-764.00964	602.91138	-916.58350	-726.29883	449.57285	-912.82941	-752.47375	274.25049	-967.37097	-746.37451	70.45477	-1020.42310	-790.53937	30.76172	-967.27405	-604.29535	37.07297	-1045.54822	-758.61975	1703.86133	-3101.86011	1973.00513	1023.29822	-3140.60376	2012.58240	1022.01556			 
31	0.300	-1133.60083	-751.33893	1664.38672	-1020.36041	-734.88855	1672.24304	-1121.71497	-865.48749	1612.56189	-1001.68469	-851.20819	1619.05933	-1075.85315	-898.44244	1424.33374	-1052.00122	-932.75818	1132.74902	-1077.30627	-753.30206	1356.76709	-1081.26672	-711.17651	1203.03577	-988.68097	-947.63818	1232.30408	-1236.62561	-820.47211	1378.21521	-1321.17188	-840.92877	1195.27991	-1329.25745	-840.37946	1041.82947	-1357.23181	-764.51257	953.74359	-1344.42566	-645.25189	882.31177	-1366.40820	-693.97406	854.41827	-1379.87341	-622.03253	812.49976	-923.79504	-810.64374	1388.79785	-817.60638	-883.98553	1199.53125	-813.36920	-898.99524	1076.32837	-777.52917	-893.29724	957.61615	-792.05499	-835.89844	826.67700	-752.21936	-878.38129	837.88416	-754.50629	-857.83734	752.44049	-1161.16980	-767.81073	920.87244	-946.78888	-747.52155	934.48853	-1089.70129	-948.33813	939.60156	-945.47998	-932.16919	947.09424	-1234.91345	-827.54480	595.07550	-1238.56921	-857.81458	463.79105	-1243.98059	-1004.28656	344.02069	-1202.24878	-1147.32092	175.22833	-1139.36462	-1183.74133	177.77065	-1230.57776	-1086.27881	42.59624	-883.92859	-759.29871	603.14630	-915.18903	-723.48877	449.07681	-912.24091	-751.56781	274.00497	-967.31433	-746.40973	70.48411	-1020.07806	-791.45746	31.25673	-967.22064	-604.24591	36.82274	-1043.10547	-749.80438	1704.69434	-3101.87817	1973.15552	1023.42438	-3140.64160	2012.56616	1022.09265			 
32	0.310	-1131.15771	-742.63007	1665.14331	-1017.85443	-726.02417	1673.15332	-1119.17969	-856.89301	1613.54565	-999.14264	-842.43805	1620.04224	-1073.29871	-889.88470	1425.25769	-1049.94031	-924.28735	1133.45508	-1074.96094	-744.84833	1357.50659	-1078.93066	-702.88062	1203.76929	-985.85742	-939.11719	1233.26147	-1234.34363	-812.18121	1379.16248	-1318.43555	-833.76868	1196.07898	-1326.07007	-834.35419	1042.60486	-1353.94458	-760.46899	952.94006	-1341.11792	-642.70007	878.91925	-1363.15588	-692.02618	852.04712	-1376.21338	-620.92279	808.63202	-921.40857	-801.56885	1389.66370	-814.64307	-874.50494	1200.03870	-810.51630	-889.13495	1076.39148	-775.15802	-881.34644	957.49237	-790.69550	-821.57452	827.72827	-750.71100	-863.32117	837.88074	-753.34467	-842.03229	753.00909	-1159.29639	-759.20209	921.51062	-944.85779	-739.92834	934.83984	-1088.89453	-940.19263	939.89117	-944.59625	-924.63037	947.75885	-1233.85120	-811.80768	594.48407	-1237.82043	-839.22296	462.74081	-1244.14587	-986.08057	344.75366	-1200.67761	-1133.84216	181.67630	-1138.10583	-1170.74146	185.19371	-1229.54456	-1075.41089	47.86419	-882.75476	-755.28918	603.13788	-913.88757	-721.05652	448.82031	-911.66248	-750.90948	274.07303	-967.31293	-746.16016	70.36462	-1020.50531	-791.03839	31.08698	-967.09821	-604.13080	36.57090	-1040.80066	-740.82764	1705.47949	-3101.77051	1973.14502	1023.35992	-3140.61816	2012.45471	1021.96094			 
33	0.320	-1128.83960	-733.89838	1665.91199	-1015.55377	-717.19006	1673.79614	-1116.72620	-848.24097	1614.49158	-996.68347	-833.71497	1620.98047	-1070.81934	-881.32477	1426.19202	-1047.87366	-915.93445	1134.18140	-1073.19556	-736.42700	1358.24585	-1076.76221	-694.67474	1204.41382	-983.23608	-930.80389	1234.16882	-1232.22302	-803.88165	1380.13733	-1315.63232	-826.82147	1196.70972	-1322.91370	-828.38055	1043.36292	-1350.77991	-756.53186	952.10602	-1337.92822	-640.52124	875.46014	-1359.61340	-690.44818	849.56543	-1372.55750	-620.55310	804.22400	-919.11676	-792.86420	1390.10376	-811.75543	-864.76581	1200.28699	-807.55695	-879.09369	1076.29700	-772.74536	-869.37585	957.34515	-789.23346	-806.99084	828.67377	-748.80029	-848.81134	837.83258	-752.06848	-825.68134	753.52863	-1157.65796	-750.75336	922.08435	-942.95056	-732.51416	935.03973	-1088.20728	-932.15039	939.98083	-943.90131	-917.37524	948.27429	-1232.76477	-796.38031	594.21320	-1236.83899	-820.80035	461.95679	-1243.83057	-967.77802	345.40952	-1198.99268	-1119.17493	187.60757	-1136.54309	-1157.11194	191.52304	-1228.05945	-1062.28796	53.60154	-881.80072	-751.04846	603.11188	-913.02332	-718.67737	448.66907	-911.01715	-749.49719	273.87012	-967.33826	-746.26306	70.35468	-1020.24933	-791.02582	31.16412	-967.00702	-604.04321	36.36758	-1038.40344	-731.95575	1706.23376	-3101.77612	1973.13342	1023.42230	-3140.47925	2012.52478	1021.95660			 
34	0.330	-1126.51367	-725.15479	1666.61694	-1013.66669	-708.51984	1673.99109	-1114.29822	-839.58911	1615.44653	-994.25653	-824.87170	1621.86548	-1068.39917	-872.73157	1427.17163	-1045.86414	-907.65826	1134.96960	-1071.14819	-728.02429	1358.87061	-1074.74792	-686.52655	1204.92139	-980.81409	-922.59821	1235.08301	-1230.14966	-795.71722	1381.00488	-1312.78308	-820.06793	1197.30505	-1319.92383	-822.38318	1044.18298	-1347.57080	-752.76050	951.44592	-1334.80530	-638.52728	871.98334	-1356.50598	-689.31683	847.33197	-1369.19519	-620.48401	800.21527	-916.90063	-784.25647	1390.29309	-808.93347	-854.90063	1200.38440	-804.51801	-868.88507	1076.06799	-770.09418	-856.80780	956.92877	-787.57721	-792.27411	829.68597	-746.95435	-834.42535	837.93658	-750.66315	-809.54712	754.12103	-1156.09375	-742.35638	922.59729	-941.17975	-725.22803	935.12134	-1087.65344	-924.15894	939.92438	-943.30719	-910.39343	948.77429	-1231.67004	-781.11865	594.44275	-1235.33350	-802.32263	461.73129	-1242.80176	-949.60040	346.53922	-1197.17712	-1103.60107	192.63881	-1134.97327	-1143.00391	196.60030	-1226.08618	-1047.23840	58.68811	-881.07935	-747.13593	603.33075	-912.12915	-715.51276	448.34842	-910.57715	-748.46448	273.94324	-967.34119	-746.08508	70.33831	-1020.26910	-790.92529	31.22098	-966.97766	-603.99652	36.16471	-1035.83069	-723.06616	1707.37073	-3101.94897	1972.91309	1023.93134	-3140.75415	2012.51477	1022.02753			 
